<svg width="21" height="16" viewBox="0 0 21 16" fill="none" xmlns="http://www.w3.org/2000/svg">
<g id="ph:copyright-light">
<path id="Vector" d="M10.5 1.625C8.84513 1.625 7.22742 1.99889 5.85144 2.69938C4.47547 3.39988 3.40302 4.39551 2.76973 5.56039C2.13644 6.72527 1.97074 8.00707 2.29359 9.2437C2.61644 10.4803 3.41334 11.6162 4.58351 12.5078C5.75368 13.3994 7.24457 14.0065 8.86765 14.2525C10.4907 14.4985 12.1731 14.3722 13.702 13.8897C15.2309 13.4072 16.5377 12.5901 17.4571 11.5418C18.3765 10.4934 18.8672 9.26086 18.8672 8C18.8646 6.30985 17.9822 4.6895 16.4136 3.49439C14.845 2.29927 12.7183 1.62698 10.5 1.625ZM10.5 13.625C9.03982 13.625 7.61243 13.2951 6.39833 12.677C5.18424 12.0589 4.23796 11.1804 3.67917 10.1526C3.12039 9.12476 2.97418 7.99376 3.25905 6.90262C3.54392 5.81147 4.24706 4.8092 5.27957 4.02252C6.31207 3.23585 7.62756 2.70012 9.05969 2.48308C10.4918 2.26604 11.9763 2.37743 13.3253 2.80318C14.6743 3.22892 15.8274 3.94989 16.6386 4.87492C17.4498 5.79994 17.8828 6.88748 17.8828 8C17.8806 9.49134 17.1021 10.9211 15.718 11.9756C14.334 13.0302 12.4574 13.6233 10.5 13.625ZM7.71094 8C7.71094 8.446 7.89512 8.8807 8.2374 9.24251C8.57967 9.60432 9.06269 9.87492 9.61802 10.016C10.1734 10.157 10.7729 10.1613 11.3316 10.0283C11.8904 9.89536 12.38 9.6318 12.7313 9.275C12.8097 9.19544 12.9264 9.14287 13.0557 9.12886C13.185 9.11485 13.3163 9.14056 13.4207 9.20031C13.5252 9.26007 13.5942 9.34899 13.6125 9.4475C13.6309 9.54602 13.5972 9.64606 13.5188 9.72563C13.0434 10.2082 12.3809 10.5646 11.625 10.7444C10.8691 10.9242 10.0581 10.9182 9.30687 10.7273C8.55565 10.5365 7.90228 10.1704 7.4393 9.68088C6.97631 9.1914 6.72718 8.60335 6.72718 8C6.72718 7.39666 6.97631 6.8086 7.4393 6.31912C7.90228 5.82963 8.55565 5.46353 9.30687 5.27266C10.0581 5.08179 10.8691 5.07582 11.625 5.2556C12.3809 5.43538 13.0434 5.7918 13.5188 6.27438C13.5972 6.35394 13.6309 6.45399 13.6125 6.5525C13.5942 6.65102 13.5252 6.73993 13.4207 6.79969C13.3163 6.85944 13.185 6.88515 13.0557 6.87114C12.9264 6.85713 12.8097 6.80457 12.7313 6.725C12.38 6.3682 11.8904 6.10464 11.3316 5.97166C10.7729 5.83868 10.1734 5.84301 9.61802 5.98405C9.06269 6.12509 8.57967 6.39568 8.2374 6.75749C7.89512 7.11931 7.71094 7.554 7.71094 8Z" fill="#545454"/>
</g>
</svg>
