<svg width="7" height="14" viewBox="0 0 7 14" fill="none" xmlns="http://www.w3.org/2000/svg">
<path d="M5.5 0.333374C5.10218 0.333374 4.72065 0.46507 4.43934 0.69949C4.15804 0.933911 4 1.25185 4 1.58337C4 1.91489 4.15804 2.23284 4.43934 2.46726C4.72065 2.70168 5.10218 2.83337 5.5 2.83337C5.89783 2.83337 6.27936 2.70168 6.56066 2.46726C6.84197 2.23284 7 1.91489 7 1.58337C7 1.25185 6.84197 0.933911 6.56066 0.69949C6.27936 0.46507 5.89783 0.333374 5.5 0.333374ZM5.14 4.30837C3.95 4.39171 0.700004 6.55004 0.700004 6.55004C0.500004 6.67504 0.560005 6.66671 0.720005 6.90004C0.880005 7.12504 0.860005 7.14171 1.05 7.03337C1.25 6.92504 1.58 6.75004 2.13 6.46671C4.25 5.33337 2.47 7.95004 1.56 12.3584C1.2 14.5417 3.56 13.4167 4.17 13.0834C4.77 12.7584 6.38 11.8334 6.54 11.7417C6.76 11.6167 6.6 11.5167 6.43 11.3084C6.31 11.1667 6.19 11.2667 6.19 11.2667C5.54 11.625 4.35 12.375 4.19 11.9C4 11.425 5.22 8.16671 5.89 5.92504C6 5.39171 6.3 4.22504 5.14 4.30837Z" fill="#699BF7"/>
</svg>
